PathFileType	4	(X/Y/Z)	/Users/niels/Desktop/University/Third Semester/Perception and Action/Exam/Gymnastics Motion Tracking/Code for Gym Tracking/Analyzed Data/Webcam_Backflip/id2_2_pure_Sports2D/id2_2_pure_Sports2D_px_person00.trc
DataRate	CameraRate	NumFrames	NumMarkers	Units	OrigDataRate	OrigDataStartFrame	OrigNumFrames
29.87551867219917	29.87551867219917	12	22	m	29.87551867219917	180	241
Frame#	Time	Hip			RHip			RKnee			RAnkle			RBigToe			RSmallToe			RHeel			LHip			LKnee			LAnkle			LBigToe			LSmallToe			LHeel			Neck			Head			Nose			RShoulder			RElbow			RWrist			LShoulder			LElbow			LWrist		
		X1	Y1	Z1	X2	Y2	Z2	X3	Y3	Z3	X4	Y4	Z4	X5	Y5	Z5	X6	Y6	Z6	X7	Y7	Z7	X8	Y8	Z8	X9	Y9	Z9	X10	Y10	Z10	X11	Y11	Z11	X12	Y12	Z12	X13	Y13	Z13	X14	Y14	Z14	X15	Y15	Z15	X16	Y16	Z16	X17	Y17	Z17	X18	Y18	Z18	X19	Y19	Z19	X20	Y20	Z20	X21	Y21	Z21	X22	Y22	Z22
180	6.025	0.9618659782514436	-0.5567632983605836	0.0	0.964180535227686	-0.5577937220705791	0.0	0.9691422610305651	-0.6737026852905543	0.0	0.9515298787719024	-0.7985497943346231	0.0	0.9855688469565488	-0.8136046265650136	0.0	0.9738045807724051	-0.8201908089681003	0.0	0.9409810616554277	-0.8172044190691723	0.0	0.9632863130267233	-0.5585162130427266	0.0	0.9697839180442258	-0.6730992936836777	0.0	0.9526729682496348	-0.7883057320415151	0.0	0.9950734948879864	-0.8083797384004999	0.0	0.9915911148296873	-0.8030577718967686	0.0	0.9352440512250583	-0.8050496011506808	0.0	0.9632616565527791	-0.40712707026704853	0.0	0.9806384679897646	-0.3286442913546277	0.0	0.9866740922017979	-0.3692554373151667	0.0	0.9533257088034458	-0.41277573889964625	0.0	0.9616673448605182	-0.3293649826915816	0.0	0.9741394413978741	-0.2614530799707026	0.0	0.9606527297805079	-0.41832526095508965	0.0	0.9700149585859742	-0.3361655867847616	0.0	0.977334521225334	-0.27138116628617676	0.0
181	6.058472222222222	0.9610805585920253	-0.5533883535071702	0.0	0.9638879580350066	-0.5544768994900053	0.0	0.9692198157126989	-0.670457049675686	0.0	0.9516069514882868	-0.7952575453009667	0.0	0.9866060986807526	-0.8109530058230935	0.0	0.9752428531661871	-0.817257455511412	0.0	0.9411473253738871	-0.8135523660359855	0.0	0.9625436319861688	-0.5550991259847611	0.0	0.9690891030287591	-0.6700960732566065	0.0	0.9519387137794753	-0.7857042949672068	0.0	0.9950686214963403	-0.8057378361591412	0.0	0.9912156928786034	-0.8007241990832089	0.0	0.9343227592365955	-0.8022674185486631	0.0	0.9623845501624712	-0.40372647742084583	0.0	0.9788427933290227	-0.3254996018272039	0.0	0.9859223124236206	-0.3652439447015856	0.0	0.9524912837850648	-0.40970253258188427	0.0	0.9623200946565802	-0.32928885812592595	0.0	0.9746216001027912	-0.2634129471780798	0.0	0.9606422595378056	-0.41490035377630213	0.0	0.9705866025971979	-0.3364956914363865	0.0	0.9772531171354489	-0.27387720662438564	0.0
182	6.091944444444445	0.9602451271209609	-0.5502053220700607	0.0	0.9635503356719884	-0.5513311759558295	0.0	0.9696029076231945	-0.6673500607205195	0.0	0.9519015391686393	-0.7918691540547528	0.0	0.9877468538370018	-0.8078235722573675	0.0	0.97698385024555	-0.813875855153106	0.0	0.9416497706468967	-0.8096055166883536	0.0	0.961529963883265	-0.5516483978486405	0.0	0.9681496664943008	-0.6671567961366897	0.0	0.9506983952798167	-0.7829228459084256	0.0	0.9944456359143197	-0.8027591714513388	0.0	0.9901275562067658	-0.7981966428663259	0.0	0.9334788127530363	-0.7991335566656315	0.0	0.9611746636537832	-0.4001088796851507	0.0	0.9765420588767849	-0.3224321243433383	0.0	0.9850283454206002	-0.3614167250794822	0.0	0.9513483780563925	-0.4067938118060841	0.0	0.9632236197726128	-0.33248007706911525	0.0	0.9756235192507533	-0.26942665290960843	0.0	0.9602589297035595	-0.4115463183634418	0.0	0.9710553551308355	-0.3407003159726963	0.0	0.9773089056917236	-0.2802238488960336	0.0
183	6.125416666666667	0.9594652343373365	-0.5473498745760768	0.0	0.9630879723043732	-0.5483162136386659	0.0	0.9701050478373049	-0.6646613723470386	0.0	0.9523542922224348	-0.7886575068265013	0.0	0.9894388026799684	-0.8046575942550055	0.0	0.9792342630151936	-0.8104849771755857	0.0	0.9424114480849785	-0.8058281212663115	0.0	0.960220094008781	-0.5482400709857952	0.0	0.9669374741864822	-0.6645266435953334	0.0	0.9492021586255089	-0.7803204182992747	0.0	0.99361905654207	-0.7997628645012207	0.0	0.9887716466227748	-0.7957205662972368	0.0	0.9329484867896547	-0.7961665628956145	0.0	0.9597398856476754	-0.3964280075571397	0.0	0.9743666807018948	-0.31951322636856105	0.0	0.9842127774538626	-0.3581700599830505	0.0	0.9498796524338562	-0.40410109633359326	0.0	0.964051618245395	-0.3397587055780065	0.0	0.9774021415562114	-0.2800492621527954	0.0	0.9595403297277859	-0.40848233569319503	0.0	0.9710936018222207	-0.3494440342875702	0.0	0.9778023684642696	-0.29074836111770186	0.0
184	6.158888888888889	0.9587820318307928	-0.5449444069870863	0.0	0.9624503287703957	-0.5455030535050494	0.0	0.97054219531563	-0.66263655106095	0.0	0.952950795006253	-0.7860040666728072	0.0	0.9919977576972944	-0.8020152213604769	0.0	0.9821304151042185	-0.8076489230741852	0.0	0.9433865318901672	-0.8028100546312782	0.0	0.9586640407702297	-0.5450368848793612	0.0	0.9654256475680509	-0.662460421810608	0.0	0.9476803738248738	-0.7782853441510827	0.0	0.9929596112346705	-0.7972049973687717	0.0	0.987538708064829	-0.7936172083433155	0.0	0.9327497709764611	-0.7938616501926465	0.0	0.9583002046918236	-0.39292473711820974	0.0	0.9730591020528594	-0.3168838461843106	0.0	0.983865045085143	-0.35590460034288113	0.0	0.9483114597583606	-0.4017347642419886	0.0	0.9642600601924733	-0.3514968032591348	0.0	0.9801518726000463	-0.2953251297555342	0.0	0.9584469722455613	-0.40588259089315737	0.0	0.9702408141668588	-0.3628356051925035	0.0	0.9789889207113268	-0.3052079900968308	0.0
185	6.192361111111111	0.9581637612561571	-0.5431089139342287	0.0	0.9616721180082642	-0.5431390542166148	0.0	0.9708195676059016	-0.6614164934250463	0.0	0.9537225056856234	-0.7842744307162797	0.0	0.9953283880384772	-0.8003065744957691	0.0	0.9855232560494656	-0.8057738166208368	0.0	0.9445510027884106	-0.801005188110348	0.0	0.9570229432578679	-0.5423748542435903	0.0	0.9636351878463931	-0.6611408409416939	0.0	0.9462905350975184	-0.7770999637237733	0.0	0.9925818653091761	-0.7954443804494589	0.0	0.9865771023801378	-0.7921279096920651	0.0	0.9327379494918439	-0.7924896225219786	0.0	0.957155939502654	-0.3899362986110918	0.0	0.9730101482856002	-0.31491595209036716	0.0	0.9844160154465678	-0.3548227772449958	0.0	0.9470499803455169	-0.39990406038808873	0.0	0.9632227294784064	-0.3675747672433766	0.0	0.9838796178661713	-0.3151472160057863	0.0	0.9569090889288309	-0.403906198239025	0.0	0.9680619110757869	-0.38046259176982206	0.0	0.9809657423143642	-0.32349368611238616	0.0
186	6.225833333333333	0.9575817578872653	-0.5420343031130502	0.0	0.9608575449629877	-0.5415804182482866	0.0	0.970914964566568	-0.6610282219159058	0.0	0.9546711443426563	-0.7836989701709568	0.0	0.998946108620233	-0.7997070258518627	0.0	0.9890110531305691	-0.8050170262690353	0.0	0.9458261136238091	-0.8005746092935009	0.0	0.9555550535077026	-0.5406910168461401	0.0	0.9617241514992019	-0.6606557090020193	0.0	0.9452050572532847	-0.7769322007384384	0.0	0.9924611388006376	-0.7946976288809906	0.0	0.9859291247563909	-0.7914356965236092	0.0	0.9328415472163709	-0.7921603588260364	0.0	0.9565706055296426	-0.38787029173285337	0.0	0.9740543735322058	-0.31405449965215665	0.0	0.9861067069240257	-0.35486448494900064	0.0	0.9464225419121118	-0.3989604706944454	0.0	0.9605342572410813	-0.3873118692102972	0.0	0.9883511418979171	-0.339462986286216	0.0	0.9550496804842838	-0.40276119498806795	0.0	0.9644188384539939	-0.40104913431247685	0.0	0.9837505665026497	-0.34594804367146836	0.0
187	6.259305555555556	0.9570361675241632	-0.5420153564902069	0.0	0.9601058147597396	-0.5412088665979248	0.0	0.9708283642120911	-0.6614902792578358	0.0	0.9556704826252438	-0.784374438594855	0.0	1.0021761597856405	-0.8003035997567279	0.0	0.9920636497487647	-0.8054299169978594	0.0	0.9470316075328503	-0.8014653925732682	0.0	0.9544619138342645	-0.5403876228644957	0.0	0.9599687812578974	-0.6610638693163476	0.0	0.9445333925347892	-0.7778748035657459	0.0	0.9925906842201215	-0.7951632089761403	0.0	0.9856598386133631	-0.7917877816548691	0.0	0.9330266855998871	-0.7929642532651857	0.0	0.9566151469570945	-0.3871255155827844	0.0	0.9756430921414861	-0.314489646750304	0.0	0.988761982547767	-0.35584769014605133	0.0	0.9464918175129468	-0.3993773303537369	0.0	0.9562861043954063	-0.40942303600812446	0.0	0.993129906080491	-0.36809977310942366	0.0	0.9532418721122328	-0.40278579833745526	0.0	0.9596390917909297	-0.4223391649587841	0.0	0.9872674242322892	-0.3729175905598947	0.0
188	6.292777777777778	0.956502795559059	-0.5433725861006858	0.0	0.9594459510821013	-0.5423799373830998	0.0	0.9705564938920316	-0.6628897751474412	0.0	0.956468296863282	-0.786303154262999	0.0	1.0043134396165914	-0.8022170072687279	0.0	0.9940713403233084	-0.8070771056086878	0.0	0.947940577429257	-0.803542109177385	0.0	0.9537169637299268	-0.5417568762318894	0.0	0.9586166539177795	-0.6624513434888183	0.0	0.9441925436883902	-0.7799364002283287	0.0	0.992890972890488	-0.7969711455681063	0.0	0.9857683690428093	-0.7934372078460062	0.0	0.9331561199412881	-0.7949677307341803	0.0	0.957125034444612	-0.3879442727351419	0.0	0.9771653385561664	-0.31611285037927667	0.0	0.9917384629496397	-0.3576531688871756	0.0	0.9470628577579039	-0.40157439639287995	0.0	0.9511309913090092	-0.4322084562726609	0.0	0.9976098078020968	-0.40045506474056136	0.0	0.951863972237253	-0.40437573749093425	0.0	0.9544234362762712	-0.44218980781883527	0.0	0.9910294205069	-0.40406933001250117	0.0
189	6.32625	0.9559012526968762	-0.5463338352820969	0.0	0.9588582714320136	-0.5453570349143908	0.0	0.9701119564498898	-0.665327598601602	0.0	0.956839200531725	-0.7894040432104465	0.0	1.0048094943526158	-0.8055262063809464	0.0	0.9945237435706646	-0.8099999065962948	0.0	0.9484442262775831	-0.806639354445361	0.0	0.9530361155647746	-0.5449636787111581	0.0	0.9577590933360233	-0.6649069037118086	0.0	0.94400307212599	-0.783036519476186	0.0	0.9931073673457189	-0.800089507054822	0.0	0.9860941712633298	-0.7965241090033758	0.0	0.9330923046540547	-0.7981506352651137	0.0	0.9578041127643413	-0.3903216840867362	0.0	0.9782310693063453	-0.31874841849565844	0.0	0.9942333591191609	-0.3602732516141253	0.0	0.9478073695146331	-0.40568513602371115	0.0	0.9460789709205762	-0.45396188548687305	0.0	1.0009661496963933	-0.4353979997347157	0.0	0.9509763607021436	-0.40770774564412043	0.0	0.949548889108939	-0.4596685288291733	0.0	0.9939706400403533	-0.4380817142647947	0.0
190	6.3597222222222225	0.9551606334007942	-0.5509799530321052	0.0	0.9583574447810594	-0.5502347977404869	0.0	0.9695518254200826	-0.6688521507457124	0.0	0.956701505882538	-0.7935076911574099	0.0	1.0034721632299357	-0.8101183477499159	0.0	0.9932516814041114	-0.814119192853644	0.0	0.9486305383202647	-0.8105551587422348	0.0	0.9520671418023864	-0.5500383904488323	0.0	0.9573347987591303	-0.6684696207391465	0.0	0.9438498085472949	-0.7870096290118972	0.0	0.9929013450303262	-0.8042988134084258	0.0	0.9863438799846801	-0.8009488348389003	0.0	0.9328243386619033	-0.8023517737091072	0.0	0.9583952132452543	-0.3940475572156261	0.0	0.9787604081047463	-0.3222918833733443	0.0	0.9957636286618945	-0.36372870830431725	0.0	0.9484276083637372	-0.41145736670954386	0.0	0.9421398975977257	-0.4733688551651735	0.0	1.0021318209330363	-0.47133581951612497	0.0	0.9503727476262915	-0.4125629005819022	0.0	0.9456787232406659	-0.47472378980679014	0.0	0.9948828111251499	-0.4728698673102265	0.0
191	6.393194444444444	0.9543500765464226	-0.5572046348329601	0.0	0.9580269794172397	-0.5568400803336329	0.0	0.9689706650310644	-0.6734083478362097	0.0	0.9561143376044994	-0.7982959450654104	0.0	1.0005954088643851	-0.8156117174162726	0.0	0.9905342126980387	-0.8191433031325722	0.0	0.9486613071946307	-0.8149926895992634	0.0	0.9507142089905672	-0.5568019335909616	0.0	0.9571875166466323	-0.6730654295423183	0.0	0.9436636256231712	-0.7915733421064196	0.0	0.99201564282898	-0.8091354233724436	0.0	0.9861919418189492	-0.8061667257526902	0.0	0.9324000961702049	-0.807189371800042	0.0	0.9587978184696	-0.39875388788068317	0.0	0.9788718826931431	-0.3266534839937254	0.0	0.9963501544755553	-0.36796071589277807	0.0	0.9487622968689747	-0.4183272967415042	0.0	0.9399672973166415	-0.4897342077696092	0.0	0.9999970655877826	-0.5062675890739796	0.0	0.9499592449334681	-0.41844754784602617	0.0	0.9433494826507833	-0.48752400722757167	0.0	0.9930722785154558	-0.5060931038673646	0.0
